HIERARCHY
ROOT Hips
{
	OFFSET 0.000000 0.000000 0.000000
	CHANNELS 6 Xposition Yposition Zposition Yrotation Zrotation Xrotation
	JOINT Spine1
	{
		OFFSET 0.000000 -0.000001 5.553894
		CHANNELS 6 Xposition Yposition Zposition Yrotation Zrotation Xrotation
		JOINT Neck
		{
			OFFSET 0.000000 -0.000001 4.427760
			CHANNELS 6 Xposition Yposition Zposition Yrotation Zrotation Xrotation
			JOINT Head
			{
				OFFSET 0.000000 -0.363272 2.815360
				CHANNELS 6 Xposition Yposition Zposition Yrotation Zrotation Xrotation
				End Site
				{
					OFFSET 0.000000 -0.000001 3.632711
				}
			}
		}
		JOINT LeftShoulder
		{
			OFFSET 0.731534 0.096024 3.575179
			CHANNELS 6 Xposition Yposition Zposition Yrotation Zrotation Xrotation
			JOINT LeftArm
			{
				OFFSET 2.610320 0.000000 0.000000
				CHANNELS 6 Xposition Yposition Zposition Yrotation Zrotation Xrotation
				JOINT LeftForeArm
				{
					OFFSET 5.118420 0.000000 0.000000
					CHANNELS 6 Xposition Yposition Zposition Yrotation Zrotation Xrotation
					JOINT LeftHand
					{
						OFFSET 4.756899 0.000000 0.000000
						CHANNELS 6 Xposition Yposition Zposition Yrotation Zrotation Xrotation
						End Site
						{
							OFFSET 2.724534 0.000000 0.000000
						}
					}
				}
			}
		}
		JOINT RightShoulder
		{
			OFFSET -0.721442 0.096024 3.575179
			CHANNELS 6 Xposition Yposition Zposition Yrotation Zrotation Xrotation
			JOINT RightArm
			{
				OFFSET -2.610320 0.000000 0.000000
				CHANNELS 6 Xposition Yposition Zposition Yrotation Zrotation Xrotation
				JOINT RightForeArm
				{
					OFFSET -5.118420 0.000000 0.000000
					CHANNELS 6 Xposition Yposition Zposition Yrotation Zrotation Xrotation
					JOINT RightHand
					{
						OFFSET -4.756900 0.000000 0.000000
						CHANNELS 6 Xposition Yposition Zposition Yrotation Zrotation Xrotation
						End Site
						{
							OFFSET -2.724534 0.000000 0.000000
						}
					}
				}
			}
		}
	}
	JOINT LeftUpLeg
	{
		OFFSET 1.816360 0.000000 0.000000
		CHANNELS 6 Xposition Yposition Zposition Yrotation Zrotation Xrotation
		JOINT LeftLeg
		{
			OFFSET 0.000000 0.000001 -7.638980
			CHANNELS 6 Xposition Yposition Zposition Yrotation Zrotation Xrotation
			JOINT LeftFoot
			{
				OFFSET 0.000000 0.000001 -8.008600
				CHANNELS 6 Xposition Yposition Zposition Yrotation Zrotation Xrotation
				JOINT LeftToeBase
				{
					OFFSET 0.000000 -2.724540 -1.180634
					CHANNELS 6 Xposition Yposition Zposition Yrotation Zrotation Xrotation
					End Site
					{
						OFFSET 0.000000 -0.726542 0.000000
					}
				}
			}
		}
	}
	JOINT RightUpLeg
	{
		OFFSET -1.816360 0.000000 0.000000
		CHANNELS 6 Xposition Yposition Zposition Yrotation Zrotation Xrotation
		JOINT RightLeg
		{
			OFFSET 0.000000 0.000001 -7.638980
			CHANNELS 6 Xposition Yposition Zposition Yrotation Zrotation Xrotation
			JOINT RightFoot
			{
				OFFSET 0.000000 0.000001 -8.008600
				CHANNELS 6 Xposition Yposition Zposition Yrotation Zrotation Xrotation
				JOINT RightToeBase
				{
					OFFSET 0.000000 -2.724540 -1.180634
					CHANNELS 6 Xposition Yposition Zposition Yrotation Zrotation Xrotation
					End Site
					{
						OFFSET 0.000000 -0.726542 0.000000
					}
				}
			}
		}
	}
}
MOTION
Frames: 5
Frame Time: 0.041667
-0.685280 -0.369185 15.019623 -2.388009 -1.971419 18.173713 0.000000 -0.000001 5.553896 -10.410136 0.627161 -20.210262 -0.000000 -0.000000 4.427759 -2.986757 -3.961373 10.834548 0.000000 -0.363272 2.815357 14.754061 -0.977304 3.398503 0.731534 0.096025 3.575181 -17.537935 2.845813 -4.684392 2.610320 0.000000 0.000001 8.354161 -10.701236 -10.319151 5.118420 -0.000000 0.000001 2.586185 0.994446 -6.660375 4.756899 0.000001 0.000001 -3.904091 16.738444 -6.063330 -0.721442 0.096025 3.575178 13.908377 -4.388602 0.202441 -2.610320 -0.000000 0.000004 -21.973060 15.696492 25.946412 -5.118420 0.000000 0.000004 108.532567 59.252697 -67.780817 -4.756903 0.000002 0.000003 32.992566 0.341763 8.761739 1.816360 0.000000 0.000000 -12.267221 25.526278 -32.561144 0.000000 0.000002 -7.638979 2.873580 17.742909 31.466798 -0.000000 0.000001 -8.008598 7.452377 18.594510 1.738110 0.000000 -2.724539 -1.180635 -0.000002 -0.000001 -0.000000 -1.816360 0.000000 -0.000000 31.581862 -3.886308 -29.695760 -0.000001 0.000002 -7.638983 -13.259614 -26.009825 24.548612 0.000001 0.000001 -8.008599 -14.036733 -25.415453 -9.093212 0.000000 -2.724540 -1.180634 -0.000001 0.000003 -0.000001 
-0.686666 -0.368706 15.020225 -2.420705 -1.970709 18.199019 0.000000 -0.000001 5.553893 -10.413811 0.648579 -20.210214 -0.000001 -0.000000 4.427762 -2.895522 -3.830138 10.828622 -0.000000 -0.363271 2.815353 14.716679 -0.862080 3.469601 0.731533 0.096024 3.575181 -17.516001 2.840186 -4.751851 2.610321 -0.000000 -0.000001 8.337064 -10.676639 -10.325442 5.118419 0.000000 0.000000 2.576753 0.997283 -6.658804 4.756899 -0.000000 -0.000001 -3.895428 16.792375 -6.061165 -0.721442 0.096024 3.575181 13.905211 -4.356174 0.132725 -2.610321 -0.000000 -0.000004 -21.958109 15.683885 25.907276 -5.118419 -0.000000 -0.000000 108.638475 59.298671 -67.930466 -4.756903 0.000002 0.000002 32.989165 0.328629 8.776733 1.816360 0.000000 -0.000003 -12.259763 25.435858 -32.574996 -0.000001 0.000001 -7.638978 2.855862 17.802598 31.447045 0.000000 0.000001 -8.008600 7.471958 18.617079 1.756865 0.000000 -2.724539 -1.180633 -0.000000 -0.000004 -0.000001 -1.816360 0.000001 -0.000000 31.614319 -3.896211 -29.702382 0.000000 0.000001 -7.638980 -13.251850 -26.060495 24.525046 0.000001 0.000002 -8.008599 -14.015491 -25.382725 -9.090885 0.000000 -2.724540 -1.180634 -0.000001 0.000006 -0.000000 
-0.686960 -0.370022 15.020736 -2.474039 -1.971023 18.196054 0.000000 -0.000000 5.553893 -10.382517 0.675323 -20.202252 0.000000 -0.000001 4.427761 -2.715210 -3.675966 10.903793 0.000001 -0.363272 2.815360 14.569693 -0.769964 3.454320 0.731534 0.096024 3.575182 -17.531963 2.824095 -4.794499 2.610320 -0.000000 0.000003 8.356637 -10.677399 -10.313896 5.118420 -0.000001 0.000000 2.519806 1.006045 -6.634284 4.756898 0.000000 0.000001 -3.746615 16.871582 -6.056294 -0.721442 0.096024 3.575178 13.938914 -4.346031 0.114252 -2.610321 -0.000000 -0.000001 -21.991551 15.682924 25.856982 -5.118420 -0.000001 -0.000001 108.696245 59.359159 -68.049031 -4.756902 0.000001 -0.000000 33.016721 0.319921 8.788509 1.816360 0.000000 -0.000001 -12.232088 25.350051 -32.545851 -0.000000 0.000002 -7.638980 2.854383 17.831985 31.404192 0.000000 0.000002 -8.008599 7.448223 18.666366 1.794246 -0.000000 -2.724540 -1.180635 0.000000 -0.000001 0.000000 -1.816360 0.000000 -0.000001 31.672646 -3.908857 -29.678528 -0.000001 0.000002 -7.638979 -13.267282 -26.076076 24.507118 0.000000 0.000001 -8.008601 -14.016597 -25.376815 -9.109720 -0.000000 -2.724539 -1.180633 0.000000 0.000004 0.000001 
-0.688733 -0.369333 15.021406 -2.496007 -1.947818 18.210032 0.000000 -0.000000 5.553896 -10.378334 0.702122 -20.187503 0.000000 -0.000000 4.427760 -2.504813 -3.537384 11.054405 -0.000001 -0.363272 2.815363 14.440570 -0.714810 3.284942 0.731534 0.096024 3.575181 -17.476383 2.759684 -4.857350 2.610320 0.000000 -0.000000 8.269363 -10.694307 -10.334822 5.118421 -0.000000 -0.000003 2.497652 1.040759 -6.644105 4.756902 -0.000001 0.000003 -3.724195 16.889705 -6.068274 -0.721442 0.096025 3.575181 13.988043 -4.335669 0.093419 -2.610320 -0.000000 -0.000003 -22.042784 15.642448 25.798330 -5.118421 -0.000001 0.000001 108.678152 59.403221 -68.040507 -4.756902 0.000003 0.000004 33.022670 0.405531 8.802794 1.816360 0.000000 -0.000000 -12.230481 25.275342 -32.562329 -0.000000 0.000002 -7.638978 2.850649 17.848440 31.390979 -0.000000 0.000001 -8.008598 7.489944 18.697552 1.802495 0.000000 -2.724539 -1.180633 0.000001 -0.000001 0.000002 -1.816360 0.000000 -0.000000 31.693143 -3.912763 -29.666722 -0.000000 0.000001 -7.638978 -13.270628 -26.112986 24.486710 0.000001 0.000001 -8.008600 -14.063406 -25.370910 -9.139677 0.000000 -2.724540 -1.180634 0.000000 0.000005 -0.000002 
-0.690357 -0.369239 15.022151 -2.516571 -1.922783 18.222835 -0.000000 -0.000000 5.553892 -10.317703 0.723006 -20.181315 0.000001 -0.000001 4.427761 -2.337622 -3.365516 11.156770 0.000001 -0.363271 2.815365 14.330708 -0.605839 3.184898 0.731535 0.096024 3.575181 -17.457771 2.790760 -4.903413 2.610318 -0.000000 0.000000 8.139750 -10.806859 -10.406211 5.118420 -0.000000 -0.000004 2.496702 1.078309 -6.614657 4.756899 0.000000 -0.000002 -3.733830 16.897687 -6.036325 -0.721442 0.096024 3.575179 13.996642 -4.328948 0.097214 -2.610321 -0.000000 0.000000 -22.115312 15.617019 25.797655 -5.118420 -0.000002 -0.000001 108.653843 59.409231 -68.045657 -4.756902 0.000002 -0.000001 33.025952 0.377136 8.787866 1.816360 0.000001 -0.000001 -12.208678 25.229940 -32.577427 -0.000000 0.000002 -7.638980 2.844293 17.836576 31.364365 -0.000000 0.000002 -8.008600 7.493090 18.722553 1.832338 -0.000000 -2.724540 -1.180633 0.000000 -0.000000 -0.000000 -1.816360 0.000001 -0.000002 31.714201 -3.916567 -29.652853 0.000000 0.000001 -7.638980 -13.280886 -26.135266 24.463407 0.000000 0.000002 -8.008601 -14.032408 -25.376463 -9.148023 -0.000000 -2.724540 -1.180634 0.000000 0.000002 -0.000000 
